<?xml version="1.0" encoding="utf-8"?>
<!-- Generator: Adobe Illustrator 23.0.1, SVG Export Plug-In . SVG Version: 6.00 Build 0)  -->
<svg version="1.1" id="Layer_1" xmlns="http://www.w3.org/2000/svg" xmlns:xlink="http://www.w3.org/1999/xlink" x="0px" y="0px"
	 viewBox="0 0 56.57 25.37" style="enable-background:new 0 0 56.57 25.37;" xml:space="preserve">
<style type="text/css">
	.st0{clip-path:url(#SVGID_2_);}
	.st1{fill:#E5BF02;}
</style>
<g>
	<g>
		<defs>
			<rect id="SVGID_1_" width="56.57" height="25.37"/>
		</defs>
		<clipPath id="SVGID_2_">
			<use xlink:href="#SVGID_1_"  style="overflow:visible;"/>
		</clipPath>
		<g class="st0">
			<g>
				<path class="st1" d="M24.48,13.61c3.99,5.79,7.76,11.26,26.93,11.26h6.17c0.04-8.31,0-17.25,0-24.37H0
					C16.67,2.29,20.63,8.03,24.48,13.61z"/>
				<path class="st1" d="M58.07,25.37H51.4c-19.43,0-23.27-5.58-27.34-11.48l0,0C20.29,8.42,16.39,2.76-0.05,1L0,0h58.07v0.5
					c0,2.27,0,4.73,0.01,7.29c0.01,5.47,0.02,11.42-0.01,17.08V25.37z M24.89,13.32C28.8,19,32.5,24.37,51.4,24.37h5.67
					c0.02-5.51,0.01-11.27,0.01-16.58c0-2.38-0.01-4.66-0.01-6.79H6.48C18.09,3.46,21.54,8.46,24.89,13.32l-0.41,0.28L24.89,13.32z"
					/>
			</g>
		</g>
	</g>
</g>
</svg>
