<?xml version="1.0" encoding="utf-8"?>
<!-- Generator: Adobe Illustrator 23.0.1, SVG Export Plug-In . SVG Version: 6.00 Build 0)  -->
<svg version="1.1" id="Layer_1" xmlns="http://www.w3.org/2000/svg" xmlns:xlink="http://www.w3.org/1999/xlink" x="0px" y="0px"
	 viewBox="0 0 1.84 25.37" style="enable-background:new 0 0 1.84 25.37;" xml:space="preserve">
<style type="text/css">
	.st0{clip-path:url(#SVGID_2_);}
	.st1{fill:#2A7050;}
	.st2{fill:#E5BF02;}
</style>
<g>
	<defs>
		<rect id="SVGID_1_" transform="matrix(-1 -1.224647e-16 1.224647e-16 -1 1.8387 25.3701)" width="1.84" height="25.37"/>
	</defs>
	<clipPath id="SVGID_2_">
		<use xlink:href="#SVGID_1_"  style="overflow:visible;"/>
	</clipPath>
	<g class="st0">
		<g>
			<path class="st1" d="M31.17,11.76C27.18,5.97,23.41,0.5,4.24,0.5h-6.17c-0.04,8.31,0,17.25,0,24.37h57.57
				C38.97,23.08,35.02,17.34,31.17,11.76z"/>
			<path class="st2" d="M-2.42,0h6.67c19.43,0,23.27,5.58,27.34,11.48l0,0c3.77,5.47,7.67,11.13,24.12,12.89l-0.05,1H-2.43v-0.5
				c0-2.27,0-4.73-0.01-7.29C-2.44,12.11-2.45,6.16-2.43,0.5L-2.42,0z M30.76,12.05C26.84,6.37,23.15,1,4.24,1h-5.67
				c-0.02,5.51-0.01,11.27-0.01,16.58c0,2.38,0.01,4.66,0.01,6.79h50.59C37.55,21.91,34.11,16.91,30.76,12.05l0.41-0.28L30.76,12.05
				z"/>
		</g>
	</g>
</g>
</svg>
